if (_typeface_js && _typeface_js.loadFace) _typeface_js.loadFace({"glyphs":{"S":{"x_min":29.15625,"x_max":643.640625,"ha":719,"o":"m 167 480 q 82 553 115 505 q 48 670 48 601 q 126 828 48 774 q 318 883 203 883 l 324 883 q 617 689 581 879 l 509 669 q 447 755 491 731 q 322 778 404 778 q 180 733 225 778 q 156 674 156 709 q 225 574 156 606 q 360 536 265 555 q 501 496 456 516 q 602 406 561 467 q 643 263 643 345 q 621 144 643 196 q 559 59 598 92 q 467 10 519 27 q 353 -6 415 -6 l 340 -6 q 191 19 253 -4 q 94 83 128 42 q 44 171 60 123 q 29 280 29 220 l 136 280 q 186 145 136 193 q 344 96 236 96 q 535 257 535 96 q 509 345 535 309 q 441 399 484 381 q 309 437 404 415 q 167 480 215 459 "},"/":{"x_min":67.828125,"x_max":601.578125,"ha":719,"o":"m 67 -54 q 75 -38 68 -52 q 89 -7 82 -23 q 103 21 97 8 q 501 975 434 796 l 601 935 q 168 -95 536 769 l 67 -54 "},"‥":{"x_min":128.25,"x_max":623.484375,"ha":719,"o":"m 128 182 l 298 182 l 298 0 l 128 0 l 128 182 m 453 182 l 623 182 l 623 0 l 453 0 l 453 182 "},"y":{"x_min":37.984375,"x_max":632.109375,"ha":719,"o":"m 227 -151 q 250 -147 239 -151 q 270 -134 261 -143 q 288 -116 280 -125 q 305 -92 297 -107 q 319 -66 313 -76 q 331 -36 324 -55 q 342 -8 339 -17 q 353 21 346 1 q 362 46 360 40 q 124 567 243 460 q 49 588 101 588 l 49 692 q 124 687 86 692 q 424 194 260 666 q 492 446 464 311 q 524 691 520 581 l 632 691 q 622 577 632 631 q 420 -96 558 227 q 346 -213 390 -172 q 230 -255 301 -255 q 37 0 37 -255 l 143 0 q 164 -118 143 -86 q 227 -151 184 -151 "},"‗":{"x_min":35.265625,"x_max":679.578125,"ha":719,"o":"m 37 -56 l 679 -56 l 679 -160 l 35 -160 l 37 -56 m 37 -242 l 679 -242 l 679 -345 l 35 -345 l 37 -242 "},"g":{"x_min":54.265625,"x_max":654.484375,"ha":719,"o":"m 160 -51 q 194 -134 160 -112 q 301 -157 229 -157 l 372 -157 q 432 -150 404 -157 q 486 -129 460 -144 q 529 -85 513 -114 q 544 -16 544 -56 q 361 48 544 48 q 217 46 316 48 q 175 8 190 35 q 160 -51 160 -18 m 322 377 q 434 404 390 377 q 477 478 477 430 q 440 566 477 541 q 333 592 403 592 q 218 560 264 592 q 171 480 171 527 q 322 377 171 377 m 64 474 q 135 637 64 579 q 333 695 207 695 q 505 655 439 695 q 564 689 533 680 q 654 697 596 697 l 654 585 q 624 589 634 589 q 562 574 577 589 q 583 481 583 537 q 512 331 583 386 q 326 276 442 276 q 191 297 247 276 q 162 231 162 263 q 284 151 162 151 q 345 151 293 151 q 406 152 397 152 q 499 144 457 152 q 576 116 541 135 q 631 64 611 98 q 651 -16 651 30 q 575 -202 651 -142 q 368 -263 499 -263 l 298 -263 q 120 -210 186 -263 q 54 -55 54 -158 q 113 92 54 41 q 55 222 55 135 q 105 357 55 299 q 64 474 64 403 "},"–":{"x_min":100.375,"x_max":636.84375,"ha":719,"o":"m 100 402 q 336 406 192 406 q 482 406 385 406 q 636 405 579 405 l 636 301 q 483 302 588 301 q 335 303 378 303 q 104 299 205 303 l 100 402 "},"e":{"x_min":52.90625,"x_max":626,"ha":719,"o":"m 160 393 q 338 400 227 394 q 518 414 448 406 q 465 540 515 492 q 345 589 416 589 q 211 532 262 589 q 160 393 160 474 m 345 692 q 441 677 398 692 q 512 639 484 662 q 562 583 541 616 q 596 519 584 550 q 614 451 607 487 q 623 390 621 415 q 626 341 626 365 q 625 311 626 317 q 160 289 322 291 q 209 151 160 205 q 356 96 258 96 q 466 124 421 96 q 537 187 511 151 l 620 113 q 597 88 605 96 q 561 58 588 79 q 509 26 535 37 q 441 3 483 14 q 354 -6 399 -6 q 129 89 206 -6 q 52 349 52 185 q 129 596 52 501 q 345 692 206 692 "},"J":{"x_min":27.125,"x_max":648.375,"ha":719,"o":"m 280 -5 q 183 11 226 -5 q 111 55 139 27 q 63 122 82 83 q 35 202 44 160 q 27 288 27 243 l 135 288 q 145 215 137 248 q 169 154 153 181 q 213 111 185 126 q 279 96 242 96 q 343 111 316 96 q 386 154 370 126 q 413 226 403 181 q 425 323 422 271 q 429 446 429 374 q 410 775 429 558 q 351 776 392 775 q 298 777 309 777 q 255 774 274 776 q 230 772 237 773 q 213 768 223 771 q 201 765 203 765 l 175 865 q 297 880 232 878 q 470 879 345 880 q 648 879 594 879 l 647 775 q 584 776 630 775 q 521 776 538 776 q 536 435 536 610 q 534 335 536 379 q 524 243 531 290 q 506 160 518 196 q 475 92 495 125 q 429 39 455 60 q 365 6 402 18 q 280 -5 327 -5 "},"‐":{"x_min":100.375,"x_max":636.84375,"ha":719,"o":"m 100 402 q 336 406 192 406 q 482 406 385 406 q 636 405 579 405 l 636 301 q 483 302 588 301 q 335 303 378 303 q 104 299 205 303 l 100 402 "},"^":{"x_min":35.265625,"x_max":663.296875,"ha":719,"o":"m 352 746 l 663 400 l 581 316 l 354 562 l 113 316 l 35 390 l 352 746 "},"D":{"x_min":42.734375,"x_max":657.203125,"ha":719,"o":"m 209 781 l 189 781 q 158 779 166 781 q 159 721 159 763 q 159 656 159 701 q 158 587 158 611 q 155 97 158 358 q 286 95 215 95 q 367 100 334 95 q 434 119 401 105 q 491 162 467 133 q 531 234 514 190 q 544 294 539 256 q 549 361 549 332 q 531 521 549 444 q 480 647 513 599 q 416 721 448 693 q 333 765 384 748 q 209 781 282 781 m 47 84 q 48 180 47 94 q 50 385 49 265 q 51 598 51 505 l 51 649 q 42 875 51 791 q 195 884 132 884 q 418 842 331 884 q 568 708 504 800 q 634 561 611 646 q 657 385 657 476 q 642 249 657 320 q 548 70 619 134 q 379 -2 476 6 q 269 -6 326 -6 q 165 -4 244 -6 q 45 -2 86 -2 q 47 84 45 19 "},"⁇":{"x_min":-21.03125,"x_max":739.265625,"ha":719,"o":"m 82 183 l 252 183 l 252 0 l 82 0 l 82 183 m -21 811 q 72 882 14 858 q 199 906 130 906 q 347 866 290 906 q 506 906 413 906 q 680 845 621 906 q 739 673 739 784 q 729 613 739 642 q 708 563 719 583 q 674 519 697 543 q 640 484 652 495 q 605 454 629 474 q 531 323 531 392 l 531 292 l 413 292 l 413 322 q 436 422 413 379 q 505 506 459 465 q 543 538 517 517 q 579 570 569 560 q 605 598 590 581 q 625 632 619 615 q 630 670 630 649 q 598 766 630 730 q 501 801 565 801 q 413 781 451 801 q 432 673 432 733 q 422 613 432 642 q 401 563 412 583 q 367 519 389 543 q 333 484 345 495 q 298 454 322 474 q 224 323 224 392 l 224 292 l 105 292 l 105 322 q 128 422 105 379 q 198 506 151 465 q 236 538 210 517 q 272 570 261 560 q 298 598 283 581 q 318 632 312 615 q 323 670 323 649 q 290 766 323 730 q 193 801 258 801 q 107 783 145 801 q 53 728 70 764 l -21 811 m 389 183 l 559 183 l 559 0 l 389 0 l 389 183 "},"w":{"x_min":4.0625,"x_max":670.765625,"ha":719,"o":"m 4 661 l 104 713 q 164 539 143 644 q 182 414 174 481 q 191 307 189 346 q 195 193 193 269 q 198 101 197 117 q 289 174 257 101 q 320 380 320 247 l 320 558 l 415 558 l 415 352 q 417 309 415 330 q 421 266 418 288 q 427 230 425 245 q 436 193 430 216 q 445 162 442 170 q 455 128 447 153 q 464 99 463 104 q 544 190 513 99 q 575 461 575 281 q 559 691 575 596 l 665 691 q 670 481 670 640 q 610 119 670 238 q 439 0 550 0 l 425 0 l 402 0 q 384 64 400 10 q 364 141 369 117 q 151 -2 299 0 l 147 -2 l 143 -2 q 103 6 120 -1 q 100 72 103 10 q 95 185 98 134 q 87 306 92 236 q 74 436 82 376 q 56 535 66 496 q 32 602 48 563 q 4 661 16 640 "},"$":{"x_min":40.6875,"x_max":649.734375,"ha":719,"o":"m 167 480 q 82 553 115 505 q 48 670 48 601 q 87 780 48 735 q 184 845 125 825 q 318 864 244 864 l 324 864 l 330 1024 l 449 1014 l 434 857 q 563 806 503 846 q 649 709 623 767 l 555 657 q 426 751 529 730 l 409 525 q 501 496 463 514 q 603 412 563 466 q 642 275 642 357 q 620 165 642 212 q 558 91 598 118 q 473 51 519 65 q 373 36 427 38 l 364 -119 l 243 -109 l 263 44 q 40 297 40 86 l 147 297 q 179 196 147 231 q 271 147 210 161 l 293 441 q 167 480 208 461 m 317 760 q 156 674 156 758 q 225 574 156 606 q 301 549 257 559 l 317 760 m 380 140 q 495 175 456 145 q 534 269 534 206 q 510 350 534 320 q 441 399 486 380 q 401 414 428 404 l 380 140 "},"‧":{"x_min":326.25,"x_max":496.484375,"ha":719,"o":"m 326 444 l 496 444 l 496 262 l 326 262 l 326 444 "},"\\":{"x_min":81.390625,"x_max":614.46875,"ha":719,"o":"m 614 -54 l 514 -95 q 81 935 154 748 l 181 975 q 367 520 229 847 q 580 21 505 193 q 614 -54 585 7 "},"’":{"x_min":225.171875,"x_max":552.75,"ha":719,"o":"m 381 994 l 552 972 q 518 833 543 900 q 458 713 493 765 q 388 622 422 661 q 317 553 354 584 l 225 648 q 318 786 267 683 q 381 994 370 889 "},"-":{"x_min":100.375,"x_max":636.84375,"ha":719,"o":"m 100 402 q 336 406 192 406 q 482 406 385 406 q 636 405 579 405 l 636 301 q 483 302 588 301 q 335 303 378 303 q 104 299 205 303 l 100 402 "},"Q":{"x_min":33.90625,"x_max":659.90625,"ha":719,"o":"m 602 -99 q 484 -73 535 -99 q 422 10 434 -48 q 339 -2 377 -2 q 134 82 216 -2 q 33 426 33 186 q 118 779 33 672 q 214 861 163 838 q 331 885 265 885 q 577 745 499 885 q 618 640 604 697 q 636 546 633 583 q 638 460 638 510 q 575 156 638 263 q 512 63 532 85 q 535 14 518 27 q 595 0 553 2 l 602 0 q 659 7 632 0 l 659 -92 q 602 -99 632 -99 m 340 291 q 484 193 460 291 q 531 450 531 252 l 531 468 q 529 543 531 514 q 516 615 526 573 q 484 693 505 658 q 420 757 459 734 q 330 781 380 781 q 190 699 238 781 q 141 468 141 618 q 192 179 141 254 q 219 234 202 210 q 258 269 236 257 q 300 286 280 281 q 340 291 320 291 m 411 113 q 391 184 410 163 q 330 206 373 206 q 272 183 297 206 q 248 128 248 161 l 248 126 q 332 97 275 97 q 411 113 376 97 "},"M":{"x_min":40.015625,"x_max":602.265625,"ha":719,"o":"m 40 876 l 145 875 q 191 752 168 803 q 250 636 214 701 q 315 514 288 569 q 350 580 320 524 q 394 661 380 636 q 431 733 407 687 q 469 813 454 779 q 495 875 484 847 l 601 875 l 602 -3 l 495 -3 l 494 623 q 440 524 476 588 q 382 418 404 459 q 357 365 360 376 l 274 367 q 260 396 272 372 q 221 469 247 419 q 170 567 195 519 q 149 610 155 599 l 149 -3 l 42 -3 l 40 876 "},"C":{"x_min":37.984375,"x_max":659.90625,"ha":719,"o":"m 385 781 q 286 755 331 781 q 215 691 242 729 q 145 423 145 592 q 233 151 145 233 q 292 112 263 123 q 363 102 320 102 l 373 102 q 565 231 508 107 l 659 180 q 551 47 619 96 q 389 -2 482 -2 l 387 -2 q 159 77 240 -2 q 37 422 37 200 q 128 752 37 620 q 235 848 167 810 q 387 885 303 885 q 522 843 459 885 q 629 720 585 800 l 537 666 q 385 781 478 781 "},"!":{"x_min":263.15625,"x_max":432.703125,"ha":719,"o":"m 415 933 l 404 314 l 292 312 l 281 933 l 415 933 m 263 183 l 432 183 l 432 0 l 263 0 l 263 183 "},"―":{"x_min":-28.234375,"x_max":724.078125,"ha":719,"o":"m -28 393 q 302 397 101 397 q 507 397 371 397 q 724 396 643 396 l 724 292 q 508 293 655 292 q 300 294 361 294 q -22 290 119 294 l -28 393 "},"{":{"x_min":192.609375,"x_max":606.328125,"ha":719,"o":"m 192 359 l 192 467 q 242 482 223 476 q 286 501 261 489 q 326 527 311 514 q 350 561 340 540 q 361 609 361 583 q 347 680 361 639 q 342 693 346 682 q 337 707 338 704 q 332 720 335 710 q 327 735 328 731 q 323 749 326 739 q 319 763 320 758 q 316 777 318 769 q 313 792 314 786 q 311 806 312 798 q 311 821 311 814 q 348 921 311 876 q 400 964 370 947 q 466 989 430 981 q 532 1001 503 998 q 602 1006 560 1004 l 606 899 q 485 887 513 894 q 425 815 427 866 q 446 713 425 781 q 467 605 467 645 q 426 479 467 533 q 333 413 385 426 q 426 347 385 400 q 467 221 467 294 q 446 113 467 181 q 425 12 425 45 q 434 -24 425 -9 q 456 -47 443 -39 q 493 -60 470 -55 q 536 -66 516 -65 q 588 -69 556 -68 q 606 -70 600 -70 l 602 -177 q 532 -172 559 -175 q 467 -162 504 -170 q 400 -136 430 -153 q 348 -93 370 -119 q 311 6 311 -49 q 311 22 311 14 q 314 38 312 29 q 317 53 316 47 q 321 70 318 60 q 325 85 324 81 q 330 102 326 90 q 336 116 335 113 q 341 132 337 119 q 347 147 346 145 q 361 217 361 187 q 350 265 361 244 q 326 300 340 286 q 286 325 311 313 q 242 344 261 338 q 192 359 223 350 "},"X":{"x_min":15.59375,"x_max":663.296875,"ha":719,"o":"m 538 908 l 629 851 l 385 445 q 447 346 407 410 q 506 253 487 282 q 555 181 526 223 q 610 109 584 139 q 663 52 635 79 l 592 -24 q 562 6 577 -9 q 535 35 547 22 q 507 69 523 48 q 483 100 492 89 q 457 136 474 111 q 434 171 440 162 q 407 212 427 181 q 382 251 387 242 q 353 297 376 261 q 324 344 330 334 l 108 -21 l 18 36 l 257 443 q 185 575 233 483 q 97 729 136 667 q 15 839 58 792 l 100 902 q 177 798 139 858 q 257 657 214 738 q 322 541 301 576 l 538 908 "},"#":{"x_min":23.0625,"x_max":613.796875,"ha":719,"o":"m 282 539 q 265 366 280 502 q 337 368 293 368 l 387 368 q 397 462 391 400 q 406 541 404 524 q 336 540 378 541 q 282 539 293 539 m 231 -12 l 116 -12 q 141 254 123 101 q 56 241 94 253 l 23 341 q 154 362 62 355 q 166 460 160 394 q 172 535 172 527 l 163 535 q 61 520 89 531 l 25 620 q 78 633 46 628 q 127 639 110 638 q 188 643 144 640 q 197 740 195 699 q 201 826 200 781 q 204 902 202 870 q 239 903 212 902 q 280 903 266 903 q 314 902 304 903 q 295 647 304 739 l 418 647 q 451 899 438 824 l 561 897 q 522 648 539 790 l 613 648 l 613 539 q 510 541 537 541 q 503 489 507 518 q 496 424 500 460 q 489 368 491 387 l 611 368 l 611 259 q 481 261 556 261 q 456 -14 467 141 l 345 -14 q 373 261 367 211 l 356 261 q 252 257 308 261 l 231 -12 "},"‟":{"x_min":144.46875,"x_max":658.546875,"ha":719,"o":"m 295 938 q 354 752 320 834 q 415 645 387 671 l 328 562 q 228 694 267 618 q 157 900 189 770 q 144 979 148 936 l 284 1005 q 295 938 289 962 m 539 940 q 598 754 564 835 q 658 647 631 673 l 572 564 q 473 695 512 619 q 401 901 434 771 q 388 981 392 937 l 528 1007 q 539 940 533 964 "},")":{"x_min":99.015625,"x_max":536.46875,"ha":719,"o":"m 99 899 l 99 1006 q 425 845 314 999 q 536 415 536 690 q 502 163 536 276 q 409 -22 468 50 q 271 -136 350 -96 q 99 -177 191 -177 l 99 -65 q 272 1 197 -65 q 388 177 348 68 q 427 415 427 285 q 409 599 427 514 q 353 753 390 685 q 251 860 315 821 q 105 899 188 899 l 99 899 "},"}":{"x_min":112.578125,"x_max":526.296875,"ha":719,"o":"m 526 359 q 476 344 495 350 q 432 325 457 338 q 392 300 406 313 q 367 265 378 286 q 357 217 357 244 q 371 147 357 187 q 376 133 372 144 q 381 120 380 123 q 386 106 383 116 q 391 92 389 96 q 395 78 392 87 q 399 63 398 69 q 402 49 400 58 q 405 34 404 41 q 406 20 406 28 q 407 6 407 12 q 370 -93 407 -49 q 318 -136 347 -119 q 251 -162 288 -153 q 186 -172 214 -170 q 115 -177 159 -175 l 112 -70 q 231 -59 204 -65 q 292 2 287 -45 q 293 12 293 6 q 272 113 293 45 q 251 221 251 181 q 292 347 251 294 q 385 413 333 400 q 292 479 333 426 q 251 605 251 533 q 272 713 251 645 q 293 815 293 781 q 287 847 293 833 q 269 869 282 860 q 244 883 255 878 q 209 892 233 889 q 171 896 184 895 q 126 898 158 897 q 112 899 117 899 l 115 1006 q 186 1001 158 1004 q 251 989 215 998 q 318 964 288 981 q 370 921 347 947 q 407 821 407 876 q 406 805 407 813 q 404 788 406 797 q 401 773 402 779 q 397 756 400 767 q 393 741 394 746 q 387 725 392 737 q 382 710 383 713 q 377 694 381 708 q 371 680 372 681 q 357 609 357 639 q 367 561 357 583 q 392 527 378 540 q 432 501 406 514 q 476 482 457 489 q 526 467 495 476 l 526 359 "},"a":{"x_min":50.1875,"x_max":659.90625,"ha":719,"o":"m 158 210 q 185 128 158 158 q 259 99 212 99 q 336 110 299 99 q 397 138 373 122 q 443 174 421 153 q 474 208 465 196 q 491 233 482 220 l 491 298 q 331 341 420 341 q 209 305 259 341 q 158 210 158 269 m 597 215 q 606 117 597 128 q 618 105 610 111 q 640 88 627 98 q 659 73 653 78 l 603 -6 q 582 8 598 -2 q 560 25 567 18 q 542 43 553 31 q 525 70 531 55 q 515 105 518 86 q 471 66 491 82 q 419 32 451 50 q 347 5 387 14 q 259 -4 307 -4 q 113 57 173 -4 q 52 204 52 118 q 68 285 52 244 q 113 357 84 327 q 209 421 158 403 q 326 439 260 439 q 491 404 434 439 q 452 548 491 502 q 328 594 414 594 q 217 571 256 594 q 138 477 178 548 l 50 533 q 164 659 96 621 q 327 697 231 697 q 523 626 449 697 q 597 439 597 554 l 597 215 "},"—":{"x_min":17.421875,"x_max":666.40625,"ha":719,"o":"m 17 402 q 302 406 129 406 q 479 406 362 406 q 666 405 596 405 l 666 301 q 480 302 607 301 q 301 303 353 303 q 22 299 144 303 l 17 402 "},"=":{"x_min":30.515625,"x_max":608.359375,"ha":719,"o":"m 33 236 q 282 242 128 242 q 447 239 343 242 q 608 236 552 236 l 607 127 q 439 129 548 127 q 267 130 330 130 q 216 131 250 130 q 164 131 181 131 q 33 128 92 131 l 33 236 m 32 559 q 268 552 151 552 q 436 555 333 552 q 607 558 539 558 l 607 450 q 438 446 541 450 q 267 442 334 442 q 30 452 194 442 q 32 559 30 524 "},"N":{"x_min":50.859375,"x_max":621.25,"ha":719,"o":"m 510 -4 q 158 678 356 331 l 158 540 q 158 233 158 429 q 158 -2 158 37 l 50 -2 l 50 880 l 158 877 q 334 580 220 787 q 510 242 448 373 q 508 513 508 374 q 516 879 508 725 l 621 879 q 615 591 615 777 q 617 351 615 514 q 618 109 618 188 q 618 52 618 90 q 617 -3 617 14 l 510 -4 "},"2":{"x_min":80.703125,"x_max":596.84375,"ha":719,"o":"m 204 581 l 102 556 q 88 632 90 593 q 88 641 88 636 q 88 649 88 647 q 158 822 88 758 q 334 885 229 885 q 583 629 583 885 q 476 408 583 523 q 375 320 447 380 q 268 225 303 259 q 218 159 235 192 q 200 105 201 126 l 596 106 l 596 1 l 82 1 q 81 32 82 11 q 80 65 80 54 q 84 120 80 97 q 201 312 103 221 q 302 397 237 345 q 394 475 367 449 q 454 553 432 511 q 476 628 476 596 q 442 736 476 693 q 339 779 408 779 q 233 741 271 779 q 195 623 195 702 q 204 581 195 605 "},"Z":{"x_min":18.984375,"x_max":655.84375,"ha":719,"o":"m 83 -3 l 18 56 l 512 779 q 261 778 431 779 q 60 776 90 776 l 59 880 q 290 881 94 880 q 554 883 485 883 q 589 881 572 883 q 616 878 606 880 q 636 874 626 876 q 649 872 647 872 q 637 779 645 824 l 178 102 l 508 101 q 573 104 551 101 q 628 118 595 107 l 655 18 q 548 -2 598 -2 l 383 -2 q 194 -2 298 -2 q 88 -3 90 -3 l 83 -3 "},"u":{"x_min":61.71875,"x_max":670.078125,"ha":719,"o":"m 614 -6 q 576 22 590 10 q 546 57 562 34 q 524 107 531 80 q 423 30 476 57 q 299 1 370 2 l 293 1 q 153 29 194 1 q 77 145 77 82 q 76 262 76 185 q 76 395 76 339 q 74 513 75 451 q 70 616 73 575 q 61 674 67 657 l 170 692 q 177 641 174 674 q 180 549 179 607 q 182 446 181 491 q 182 310 182 400 q 183 169 183 219 q 217 118 188 139 q 288 105 233 105 q 396 134 354 108 q 413 143 398 135 q 432 155 427 151 q 450 168 438 158 q 470 185 463 177 q 486 206 477 193 q 501 233 495 219 l 501 691 l 608 691 l 608 162 q 670 72 609 120 l 614 -6 "},"k":{"x_min":76.640625,"x_max":652.453125,"ha":719,"o":"m 397 383 q 474 420 446 383 q 503 505 503 457 q 498 539 503 524 q 474 575 492 559 q 427 591 456 591 q 369 576 400 591 q 198 480 274 531 l 198 419 q 333 392 251 411 q 397 383 373 383 m 198 596 q 311 659 248 630 q 421 689 373 689 q 545 650 491 689 q 606 552 599 611 q 609 496 609 526 q 604 433 609 461 q 570 369 600 408 q 495 307 541 329 q 540 252 524 286 q 570 179 557 219 q 596 117 583 138 q 652 60 613 88 l 595 -12 q 553 15 572 -2 q 523 46 534 32 q 500 84 512 59 q 484 118 488 109 q 472 153 481 127 q 470 161 470 158 q 425 225 457 196 q 352 273 393 255 q 272 302 311 291 q 199 318 233 314 q 198 87 198 189 q 198 39 198 69 q 198 0 198 9 l 92 0 l 92 832 q 76 937 92 888 l 180 967 q 198 876 198 921 l 198 596 "},"€":{"x_min":0.671875,"x_max":640.25,"ha":719,"o":"m 531 564 l 496 462 l 488 462 q 445 460 484 462 q 377 458 407 458 l 212 458 q 211 413 211 427 q 211 396 211 413 q 269 395 231 395 q 456 396 335 395 l 474 396 l 438 295 l 221 292 q 280 142 234 201 q 384 84 326 84 l 397 84 q 551 194 501 84 l 640 135 q 574 43 616 79 q 489 -7 533 6 q 394 -21 444 -21 q 294 2 346 -21 q 202 76 241 25 q 114 293 134 163 q 61 293 94 293 q 18 293 35 293 l 2 292 l 6 309 q 23 350 10 323 q 40 387 36 377 l 43 395 l 50 395 q 108 396 79 396 l 108 428 q 109 458 108 448 q 17 460 28 459 l 0 461 l 7 479 q 26 524 14 497 q 41 556 39 552 l 44 564 l 52 564 q 120 562 68 563 q 175 747 136 659 q 244 843 201 804 q 328 896 288 881 q 405 910 368 910 q 612 803 516 910 l 568 677 q 496 766 539 732 q 403 800 453 800 q 291 733 339 800 q 224 560 244 666 l 298 560 l 425 560 q 456 562 438 561 q 487 563 474 562 q 513 564 500 564 l 531 564 "},"s":{"x_min":80.03125,"x_max":607.6875,"ha":719,"o":"m 182 387 q 103 531 103 430 q 169 655 103 613 q 332 697 235 697 q 477 673 403 697 q 590 602 551 649 l 513 526 q 437 577 486 557 q 341 597 387 597 q 246 581 284 597 q 209 533 209 564 q 219 496 209 510 q 250 473 229 482 q 338 439 284 459 q 423 408 391 420 q 495 375 456 396 q 556 332 534 354 q 592 273 577 309 q 607 190 607 237 q 563 65 607 113 q 457 0 519 16 q 340 -13 399 -13 q 146 49 212 -13 q 80 223 80 111 l 186 223 q 338 83 186 83 q 454 112 406 83 q 502 193 502 141 q 489 246 502 227 q 444 288 476 264 q 315 339 416 308 q 182 387 215 370 "},"B":{"x_min":57.65625,"x_max":638.890625,"ha":719,"o":"m 65 558 q 57 871 65 756 q 103 875 69 872 q 162 879 137 878 q 222 881 187 881 l 234 881 q 336 869 289 881 q 422 835 383 858 q 484 772 461 812 q 507 679 507 732 q 448 520 507 573 q 585 425 532 492 q 638 266 638 358 q 576 84 638 156 q 424 2 514 12 q 343 -3 382 -3 q 253 0 316 -3 q 151 2 190 2 l 59 2 q 62 223 59 48 q 65 558 65 398 m 400 672 q 358 753 400 727 q 242 779 316 779 l 230 779 q 172 776 206 779 q 175 689 175 743 q 174 618 175 667 q 174 544 174 570 q 212 544 185 544 q 246 545 238 545 q 271 547 253 545 q 298 550 290 548 q 319 556 305 552 q 344 565 333 560 q 368 579 355 571 q 391 612 381 587 q 400 667 400 637 l 400 672 m 480 392 q 411 430 444 421 q 324 440 377 440 q 269 439 310 440 q 202 438 229 438 l 172 438 q 171 297 172 375 q 170 172 171 219 q 170 103 170 126 q 254 101 209 103 q 321 99 299 99 q 396 103 362 99 q 491 158 452 110 q 531 277 531 206 q 519 343 531 316 q 480 392 507 369 "},"…":{"x_min":8.328125,"x_max":701.640625,"ha":719,"o":"m 279 182 l 430 182 l 430 0 l 279 0 l 279 182 m 8 182 l 159 182 l 159 0 l 8 0 l 8 182 m 550 182 l 701 182 l 701 0 l 550 0 l 550 182 "},"?":{"x_min":78,"x_max":575.140625,"ha":719,"o":"m 342 906 q 516 845 457 906 q 575 673 575 784 q 565 613 575 642 q 544 563 555 583 q 510 519 533 543 q 476 484 488 495 q 441 454 465 474 q 367 323 367 392 l 367 292 l 248 292 l 248 322 q 271 422 248 379 q 341 506 295 465 q 379 538 353 517 q 415 570 404 560 q 441 598 426 581 q 461 632 455 615 q 466 670 466 649 q 434 766 466 730 q 337 801 401 801 q 227 768 270 801 q 184 670 185 735 q 221 585 184 632 l 130 524 q 78 667 78 602 q 99 773 78 727 q 157 849 120 820 q 241 892 194 877 q 342 906 288 906 m 225 183 l 395 183 l 395 0 l 225 0 l 225 183 "},"H":{"x_min":40.6875,"x_max":618.546875,"ha":719,"o":"m 149 878 l 148 507 q 356 526 231 526 l 511 526 q 511 729 511 629 q 510 875 510 830 l 618 875 l 618 0 l 511 0 l 511 423 l 423 423 q 148 404 238 423 q 149 161 148 274 q 149 0 149 47 l 40 0 l 40 877 l 149 878 "},"c":{"x_min":48.15625,"x_max":657.203125,"ha":719,"o":"m 155 357 q 164 264 155 305 q 185 196 172 223 q 217 151 197 170 q 254 123 237 132 q 296 108 271 113 q 335 102 320 103 q 370 101 349 101 l 379 101 q 497 128 453 101 q 571 204 541 155 l 657 143 q 645 126 655 141 q 625 101 634 111 q 599 73 616 90 q 562 43 582 55 q 516 20 542 31 q 455 1 490 8 q 382 -4 421 -4 q 261 6 315 -4 q 163 49 207 16 q 74 173 100 98 q 48 357 48 249 q 69 514 48 449 q 135 617 91 579 q 239 673 179 655 q 382 690 299 690 q 537 642 476 690 q 615 535 584 607 l 510 494 q 504 515 507 506 q 491 538 501 523 q 467 562 480 553 q 429 579 454 571 q 375 586 405 586 q 208 532 261 586 q 155 357 155 478 "},"‼":{"x_min":98.15625,"x_max":592.703125,"ha":719,"o":"m 250 933 l 239 314 l 127 312 l 116 933 l 250 933 m 98 183 l 267 183 l 267 0 l 98 0 l 98 183 m 575 933 l 564 314 l 452 312 l 441 933 l 575 933 m 423 183 l 592 183 l 592 0 l 423 0 l 423 183 "},"•":{"x_min":155.984375,"x_max":530.375,"ha":719,"o":"m 210 215 q 155 347 155 270 q 210 480 155 425 q 343 535 265 535 q 475 480 420 535 q 530 347 530 425 q 475 215 530 270 q 343 160 420 160 q 210 215 265 160 "},"(":{"x_min":168.203125,"x_max":605.65625,"ha":719,"o":"m 605 899 q 599 899 605 899 q 452 860 516 899 q 351 753 389 821 q 295 599 314 685 q 276 415 276 514 q 316 177 276 285 q 431 1 356 68 q 604 -65 507 -65 l 604 -177 q 433 -136 512 -177 q 295 -22 354 -96 q 202 163 236 50 q 168 415 168 276 q 279 845 168 690 q 605 1006 389 999 l 605 899 "},"U":{"x_min":41.375,"x_max":633.453125,"ha":719,"o":"m 526 890 l 633 881 q 627 775 627 841 q 628 636 627 722 q 628 515 628 550 l 628 476 q 627 357 628 402 q 618 255 625 312 q 594 154 611 197 q 550 80 577 111 q 457 15 510 35 q 333 -6 404 -4 q 202 13 256 -6 q 115 74 148 33 q 67 170 83 115 q 46 303 50 225 q 41 528 41 374 q 47 883 41 722 l 154 883 q 149 493 149 659 q 153 297 149 354 q 204 143 162 191 q 324 95 246 95 q 409 110 377 98 q 468 152 440 123 q 521 476 521 210 q 519 613 521 514 q 518 773 518 712 q 526 890 518 835 "},"F":{"x_min":78.671875,"x_max":651.09375,"ha":719,"o":"m 187 0 l 78 2 l 78 880 l 543 880 q 651 856 609 877 l 613 757 q 593 767 600 764 q 565 773 586 769 q 514 776 545 776 l 466 776 q 184 775 432 776 l 184 552 q 288 553 225 552 q 394 554 352 554 q 418 554 406 554 q 440 552 430 553 q 458 551 449 552 q 473 549 467 550 q 484 547 480 548 q 491 545 489 546 l 494 545 l 506 541 l 482 443 q 392 453 442 453 q 184 451 257 453 q 186 218 184 407 q 187 0 187 28 "},":":{"x_min":267.25,"x_max":437.484375,"ha":719,"o":"m 267 702 l 437 702 l 437 520 l 267 520 l 267 702 m 267 183 l 437 183 l 437 1 l 267 1 l 267 183 "},"*":{"x_min":32.5625,"x_max":676.1875,"ha":719,"o":"m 294 501 l 291 790 l 406 790 l 404 501 l 626 600 l 676 506 l 430 402 l 614 185 l 529 109 l 354 358 l 187 110 l 98 181 l 271 402 l 32 499 l 77 596 l 294 501 "},"†":{"x_min":37.296875,"x_max":613.796875,"ha":719,"o":"m 374 794 q 613 799 554 799 l 613 691 q 473 688 558 691 q 375 685 387 685 q 381 151 381 289 l 381 50 q 377 -134 381 -52 l 268 -133 q 271 -25 271 -81 q 271 29 271 -12 q 271 103 271 70 q 267 683 271 298 q 37 693 195 683 q 39 800 37 766 q 265 793 151 793 q 265 948 265 852 l 265 1011 l 373 1011 l 373 913 q 374 794 373 838 "},"V":{"x_min":5.421875,"x_max":670.078125,"ha":719,"o":"m 280 -3 q 163 417 268 88 q 5 872 58 746 l 108 908 q 225 584 163 770 q 335 220 287 398 q 567 898 394 474 l 670 862 q 502 403 608 717 q 389 -2 397 88 l 280 -3 "},"0":{"x_min":76.640625,"x_max":588.015625,"ha":719,"o":"m 189 308 l 453 646 q 436 697 444 678 q 414 739 427 716 q 379 772 400 761 q 333 783 359 783 q 181 405 181 783 q 189 308 181 357 m 478 554 l 212 215 q 255 125 228 158 q 334 92 282 92 q 386 106 363 92 q 425 139 409 119 q 451 191 440 159 q 468 252 462 223 q 478 323 474 282 q 482 393 481 363 q 482 460 482 422 q 478 554 482 512 m 332 887 q 437 860 391 887 q 511 791 483 833 q 556 689 539 748 q 581 571 574 630 q 588 447 588 513 q 334 -10 588 -10 q 229 14 275 -10 q 155 80 183 39 q 109 178 127 121 q 83 293 90 235 q 76 417 76 352 q 80 509 76 464 q 91 600 83 553 q 112 689 99 648 q 145 767 125 730 q 191 830 165 804 q 253 871 217 856 q 332 887 289 887 "},"”":{"x_min":99.703125,"x_max":614.46875,"ha":719,"o":"m 463 938 q 474 1006 470 967 l 614 979 q 600 900 611 941 q 529 694 568 770 q 430 562 490 618 l 343 645 q 404 752 370 671 q 463 938 437 833 m 219 940 q 230 1007 225 970 l 370 981 q 356 901 366 942 q 285 695 324 771 q 185 564 246 619 l 99 647 q 160 754 126 673 q 219 940 193 835 "},"@":{"x_min":27.8125,"x_max":678.21875,"ha":719,"o":"m 309 339 q 330 257 309 287 q 385 227 351 227 q 472 274 429 227 q 531 362 514 321 l 531 427 q 472 458 507 447 q 402 470 436 470 q 309 339 309 470 m 548 209 q 523 183 531 191 q 498 161 516 175 q 467 141 481 147 q 431 130 453 135 q 385 124 409 124 q 259 187 315 124 q 203 333 203 249 q 258 510 203 441 q 396 578 314 578 q 531 533 482 578 q 531 580 531 561 q 526 627 530 600 q 517 672 523 654 q 499 711 511 691 q 472 744 488 731 q 430 764 455 756 q 374 772 405 772 q 191 661 259 772 q 124 339 124 550 q 157 145 124 234 q 251 2 189 56 q 392 -52 314 -52 q 496 -16 439 -52 l 537 -108 q 384 -151 454 -151 q 236 -109 305 -151 q 123 3 168 -66 q 53 159 78 72 q 27 335 27 246 q 122 732 27 589 q 373 874 216 874 q 478 856 432 874 q 554 807 525 837 q 603 736 583 777 q 631 654 623 695 q 638 568 638 613 l 638 344 l 638 324 q 640 270 638 292 q 651 218 642 248 q 678 161 660 187 l 575 118 q 548 209 556 151 "},"i":{"x_min":61.71875,"x_max":697.890625,"ha":719,"o":"m 212 953 l 371 953 l 371 800 l 212 800 l 212 953 m 282 687 l 361 687 l 362 142 q 384 93 364 103 q 457 84 404 84 q 564 96 510 84 q 651 133 619 109 l 697 56 q 591 5 656 22 q 458 -12 526 -12 q 319 13 366 -12 q 256 139 256 48 l 256 581 q 81 562 163 581 l 61 658 q 282 687 184 687 "},"]":{"x_min":105.125,"x_max":468.65625,"ha":719,"o":"m 134 1005 q 205 1001 160 1003 q 326 999 219 1001 q 468 996 433 996 l 468 711 q 467 559 468 670 q 467 384 467 447 q 465 120 465 141 q 466 -29 465 59 q 467 -179 467 -118 q 323 -177 432 -179 q 197 -175 214 -175 q 105 -181 155 -175 l 105 -71 q 202 -65 133 -65 l 210 -65 q 360 -68 273 -65 l 360 892 q 113 901 158 897 l 134 1005 "},"m":{"x_min":18.3125,"x_max":696.53125,"ha":719,"o":"m 518 695 q 577 675 553 695 q 613 621 602 654 q 629 559 625 588 q 634 501 634 530 l 634 146 q 653 104 634 122 q 696 75 672 85 l 655 -14 q 616 0 635 -10 q 579 25 597 8 q 550 68 561 41 q 539 129 539 95 l 539 130 l 539 515 l 539 524 q 495 592 539 592 q 385 469 442 592 l 385 0 l 290 0 l 290 546 q 288 567 290 559 q 279 583 287 575 q 257 592 271 592 q 197 562 229 592 q 136 468 165 532 l 136 0 l 40 0 l 38 552 q 18 682 38 624 l 120 710 q 133 657 127 695 q 141 594 139 620 q 205 666 165 636 q 280 695 244 695 q 356 664 327 695 q 385 594 385 633 q 518 695 440 695 "},"8":{"x_min":44.078125,"x_max":616.5,"ha":719,"o":"m 199 140 q 330 99 246 99 q 461 140 413 99 q 508 249 508 180 q 494 317 508 286 q 452 371 480 347 q 397 411 424 395 q 330 445 369 427 q 263 411 290 427 q 208 371 236 395 q 166 317 180 347 q 151 249 151 286 q 199 140 151 180 m 330 556 q 419 603 383 570 q 454 670 454 636 q 420 741 454 712 q 328 770 387 770 q 237 741 270 770 q 203 670 203 712 q 239 603 203 636 q 330 556 276 570 m 158 817 q 328 876 220 876 q 499 817 437 876 q 560 668 560 758 q 526 569 560 617 q 445 500 492 520 q 564 404 513 467 q 616 256 616 340 q 538 67 616 141 q 330 -6 459 -6 q 122 67 200 -6 q 44 256 44 141 q 95 404 44 340 q 215 500 147 467 q 132 569 168 521 q 96 668 96 617 q 158 817 96 758 "},"R":{"x_min":57.65625,"x_max":670.765625,"ha":719,"o":"m 442 366 q 474 315 446 360 q 514 252 503 270 q 547 202 525 235 q 583 149 569 169 q 609 117 598 130 q 617 109 610 115 q 628 100 623 103 q 639 90 632 96 q 654 81 647 85 q 670 75 662 78 l 630 -14 q 576 6 602 -10 q 531 45 550 23 q 320 362 466 116 q 167 384 268 367 l 168 0 l 61 0 l 61 754 q 57 873 61 822 q 205 883 164 883 q 301 882 263 883 q 383 873 339 880 q 457 855 426 867 q 517 823 487 843 q 572 772 548 802 q 613 699 597 741 q 628 616 628 657 q 442 366 628 396 m 523 607 q 484 710 523 666 q 388 764 451 749 q 208 779 325 779 q 166 779 185 779 l 167 487 q 225 475 184 484 q 292 463 267 467 q 343 459 318 459 q 377 461 360 459 q 440 474 416 466 q 485 497 465 482 q 514 539 505 513 q 523 607 523 566 "},"o":{"x_min":48.828125,"x_max":611.75,"ha":719,"o":"m 443 145 q 503 359 503 202 q 503 371 503 359 q 463 534 502 473 q 339 595 423 595 q 251 575 287 595 q 194 518 215 556 q 165 431 174 480 q 155 318 155 383 q 200 161 155 217 q 328 105 244 105 q 392 115 366 106 q 443 145 417 124 m 326 0 q 120 85 191 1 q 48 314 48 168 q 57 431 48 376 q 85 535 65 485 q 135 621 105 585 q 212 678 166 657 q 316 699 258 699 q 474 666 413 699 q 571 563 535 632 q 611 368 611 486 q 603 255 611 307 q 574 155 594 203 q 522 74 554 107 q 441 20 491 40 q 328 0 392 0 l 326 0 "},"5":{"x_min":71.890625,"x_max":604.96875,"ha":719,"o":"m 328 495 q 175 424 244 495 q 173 422 174 423 l 88 459 l 119 873 l 525 872 l 525 767 l 215 767 l 199 566 q 326 602 261 602 q 457 573 397 602 q 562 470 520 540 q 604 305 604 400 q 526 79 604 158 q 320 -1 447 0 l 318 -1 q 174 43 236 -1 q 71 156 112 88 l 162 216 q 230 134 193 164 q 320 104 268 104 q 451 155 405 104 q 497 303 497 207 q 410 478 497 437 q 328 495 373 495 "},"7":{"x_min":48.15625,"x_max":677.546875,"ha":719,"o":"m 102 876 q 195 874 131 876 q 284 872 259 872 l 618 872 l 646 872 l 677 816 q 584 652 636 739 q 498 510 532 564 q 427 388 463 455 q 371 266 392 320 q 337 143 350 211 q 324 0 324 74 l 212 0 q 217 90 212 45 q 230 174 223 135 q 255 259 238 212 q 284 339 271 305 q 324 422 297 373 q 367 503 350 472 q 419 589 383 533 q 473 675 454 645 q 533 768 492 705 q 399 767 498 767 l 311 767 q 168 772 282 767 q 139 693 156 750 l 48 735 q 74 803 54 755 q 102 876 93 851 "},"K":{"x_min":78.671875,"x_max":679.578125,"ha":719,"o":"m 328 491 q 528 261 401 420 q 679 40 655 102 l 588 -11 q 449 190 566 42 q 263 406 332 339 q 185 292 206 340 l 185 -3 l 78 -3 l 78 887 l 185 887 l 185 476 q 355 675 250 566 q 465 783 412 733 q 551 859 519 832 q 584 888 582 886 l 659 816 q 478 654 579 758 q 328 491 377 551 "},",":{"x_min":235.34375,"x_max":446.953125,"ha":719,"o":"m 271 185 l 442 185 l 446 7 l 446 5 q 276 -266 446 -189 l 235 -172 q 307 -104 284 -145 q 331 3 331 -64 l 271 3 l 271 185 "},"d":{"x_min":49.515625,"x_max":600.234375,"ha":719,"o":"m 156 324 q 190 156 156 213 q 307 99 225 99 q 384 111 354 99 q 435 144 415 123 q 481 208 455 166 l 481 504 q 401 562 449 535 q 310 588 352 588 q 191 528 227 588 q 156 324 156 467 m 588 181 l 588 163 q 600 4 588 84 l 489 -8 q 481 56 482 36 q 307 -4 412 -4 q 112 80 174 -4 q 49 311 49 166 q 56 439 49 383 q 82 543 63 494 q 130 625 100 593 q 207 675 160 657 q 320 693 255 693 q 480 643 402 693 l 480 784 q 470 951 480 852 l 579 956 q 588 781 588 879 l 588 181 "},"E":{"x_min":69.171875,"x_max":639.5625,"ha":719,"o":"m 69 876 q 207 879 107 879 q 274 879 207 879 l 348 879 q 489 878 405 879 q 592 877 573 877 l 602 877 l 602 775 l 176 775 l 176 553 l 473 553 l 473 451 l 176 451 l 176 431 q 175 233 176 352 q 174 99 174 115 l 530 101 q 566 105 547 101 q 598 113 586 109 l 609 118 l 639 18 q 617 11 633 16 q 592 4 600 6 q 566 0 583 2 q 531 -2 550 -2 l 69 -2 l 69 876 "},"Y":{"x_min":22.375,"x_max":655.84375,"ha":719,"o":"m 270 -4 l 270 91 q 272 242 270 119 q 275 407 275 364 q 145 624 238 459 q 22 852 52 790 l 117 900 q 222 707 149 839 q 333 514 295 575 q 460 720 380 581 q 561 909 540 860 l 655 855 q 503 581 581 706 q 450 501 478 545 q 405 432 422 457 q 383 400 389 407 q 383 351 383 384 q 382 299 382 318 q 379 84 379 149 l 379 -4 l 270 -4 "},"\"":{"x_min":128.859375,"x_max":611.078125,"ha":719,"o":"m 173 916 q 168 984 173 940 l 309 992 q 316 912 316 946 q 297 695 316 778 q 232 543 278 612 l 128 603 q 161 722 149 635 q 173 916 173 809 m 467 915 q 462 983 467 938 l 604 991 q 611 910 611 945 q 591 694 611 777 q 526 542 572 611 l 423 602 q 455 720 443 634 q 467 915 467 807 "},"‹":{"x_min":182.4375,"x_max":512.0625,"ha":719,"o":"m 182 389 q 218 421 190 396 q 257 456 246 446 q 291 488 267 465 q 325 523 315 511 q 353 556 336 535 q 379 592 370 577 q 395 626 387 607 q 406 661 403 644 l 512 636 q 482 550 502 591 q 429 472 461 509 q 373 410 398 434 q 307 351 348 386 q 431 217 384 280 q 499 73 478 153 l 396 37 q 329 165 379 106 q 182 311 279 225 l 182 389 "},"„":{"x_min":99.703125,"x_max":614.46875,"ha":719,"o":"m 463 149 q 474 216 470 179 l 614 189 q 600 109 610 150 q 529 -95 568 -19 q 430 -227 490 -171 l 343 -143 q 404 -36 370 -118 q 463 149 437 44 m 219 150 q 230 217 225 180 l 370 191 q 356 111 366 151 q 285 -94 324 -18 q 185 -225 246 -170 l 99 -142 q 160 -35 126 -116 q 219 150 193 45 "},"․":{"x_min":269.25,"x_max":439.484375,"ha":719,"o":"m 269 182 l 439 182 l 439 0 l 269 0 l 269 182 "},"|":{"x_min":258.40625,"x_max":375.0625,"ha":719,"o":"m 264 103 q 261 545 264 233 q 258 948 258 857 l 258 1011 l 366 1011 l 366 913 q 370 547 366 824 q 375 151 375 269 l 375 50 q 370 -134 375 -52 l 261 -133 q 265 -25 265 -81 q 264 29 265 -12 q 264 103 264 70 "},"b":{"x_min":63.078125,"x_max":614.46875,"ha":719,"o":"m 507 324 q 321 586 507 586 q 298 583 309 586 q 279 578 287 581 q 259 569 270 576 q 242 559 247 562 q 225 545 237 556 q 210 532 212 534 q 195 517 208 530 l 182 504 l 182 208 q 255 122 221 145 q 355 99 288 99 q 473 157 438 99 q 507 324 507 214 m 614 311 q 599 185 614 241 q 555 85 585 128 q 474 18 524 42 q 355 -4 423 -4 q 182 56 251 -4 q 174 -8 181 36 l 63 4 q 75 164 75 89 l 75 181 q 75 475 75 263 q 75 784 75 687 q 65 951 75 852 l 172 957 q 182 781 182 880 l 182 643 q 216 668 205 660 q 254 683 227 675 q 311 691 280 691 q 614 311 614 691 "},"q":{"x_min":77.3125,"x_max":628.03125,"ha":719,"o":"m 183 357 q 373 100 183 100 q 408 106 390 100 q 436 116 426 111 q 464 136 446 120 q 486 155 483 152 q 509 177 489 158 l 509 473 q 462 536 482 515 q 412 570 442 558 q 335 581 381 581 q 218 524 252 581 q 183 357 183 467 m 615 517 l 615 -102 q 626 -269 615 -170 l 518 -275 q 509 -99 509 -204 l 509 37 q 498 31 507 36 q 487 24 490 25 q 477 17 484 22 q 464 11 469 12 q 452 6 460 9 q 438 1 444 2 q 422 -1 431 0 q 403 -4 413 -3 q 382 -4 393 -4 q 77 370 77 -4 q 91 496 77 440 q 136 596 106 553 q 217 663 166 639 q 335 687 267 687 q 509 625 440 687 q 516 690 510 645 l 628 676 q 615 517 615 596 "},"z":{"x_min":48.15625,"x_max":646.34375,"ha":719,"o":"m 65 592 l 83 695 q 271 691 114 691 l 596 691 l 612 613 q 581 578 611 613 q 493 481 550 543 q 374 354 436 418 q 291 269 318 298 q 227 194 264 240 q 166 105 190 147 l 531 105 q 646 83 579 105 l 619 -14 q 603 -10 615 -13 q 588 -5 592 -6 q 574 -3 583 -4 q 555 0 564 -1 q 533 0 545 0 l 48 0 l 48 13 q 63 128 48 96 q 96 188 78 159 q 142 249 115 217 q 186 302 168 282 q 242 362 204 322 q 295 419 280 402 q 457 583 383 514 l 436 583 q 358 584 415 583 q 269 585 301 585 q 65 592 112 585 "},"‣":{"x_min":134.28125,"x_max":546.640625,"ha":719,"o":"m 153 581 l 546 367 l 546 322 l 155 128 l 134 188 l 134 529 l 153 581 "},"~":{"x_min":21.03125,"x_max":672.796875,"ha":719,"o":"m 227 508 q 302 490 263 508 q 370 449 342 471 q 429 408 398 427 q 480 389 460 389 q 518 401 501 389 q 546 432 535 413 q 564 470 558 451 q 575 507 571 488 l 672 465 q 477 286 626 286 q 415 298 446 286 q 359 327 384 310 q 311 362 335 345 q 265 392 288 379 q 220 404 241 404 q 163 377 192 404 q 108 305 133 351 l 21 367 q 105 474 59 440 q 227 508 151 508 "},"⁉":{"x_min":61.71875,"x_max":731.796875,"ha":719,"o":"m 382 183 l 552 183 l 552 0 l 382 0 l 382 183 m 278 811 q 372 882 314 858 q 499 906 430 906 q 673 845 614 906 q 731 673 731 784 q 721 613 731 642 q 700 563 712 583 q 667 519 689 543 q 633 484 644 495 q 598 454 621 474 q 524 323 524 392 l 524 292 l 405 292 l 405 322 q 428 422 405 379 q 497 506 451 465 q 535 538 510 517 q 572 570 561 560 q 597 598 583 581 q 617 632 612 615 q 623 670 623 649 q 590 766 623 730 q 493 801 558 801 q 407 783 444 801 q 353 728 370 764 l 278 811 m 214 933 l 203 314 l 90 312 l 80 933 l 214 933 m 61 183 l 231 183 l 231 0 l 61 0 l 61 183 "},"[":{"x_min":238.734375,"x_max":602.265625,"ha":719,"o":"m 572 1005 l 594 901 q 347 892 549 897 l 347 -68 q 496 -65 434 -65 l 505 -65 q 602 -71 573 -65 l 602 -181 q 510 -175 551 -175 q 383 -177 493 -175 q 240 -179 274 -179 q 240 -29 240 -118 q 241 120 241 59 q 240 384 241 141 q 239 559 240 447 q 238 711 238 670 l 238 996 q 381 999 274 996 q 501 1001 488 1001 q 572 1005 547 1003 "},"L":{"x_min":95.625,"x_max":668.046875,"ha":719,"o":"m 95 -2 l 95 880 l 204 880 l 204 102 l 558 102 q 640 117 602 104 l 668 18 q 559 -2 608 -2 l 95 -2 "},"‖":{"x_min":158.03125,"x_max":573.78125,"ha":719,"o":"m 164 103 q 161 545 164 233 q 158 948 158 857 l 158 1011 l 266 1011 l 266 913 q 270 547 266 824 q 274 151 274 269 l 274 50 q 270 -134 274 -52 l 161 -133 q 164 -25 164 -80 q 164 29 164 -12 q 164 103 164 70 m 463 103 q 460 545 463 233 q 457 948 457 857 l 457 1011 l 565 1011 l 565 913 q 569 547 565 824 q 573 151 573 269 l 573 50 q 569 -134 573 -52 l 460 -133 q 463 -25 463 -80 q 463 29 463 -12 q 463 103 463 70 "}," ":{"x_min":0,"x_max":0,"ha":719},"%":{"x_min":37.296875,"x_max":678.90625,"ha":719,"o":"m 452 152 l 452 145 q 466 103 454 115 q 506 89 478 90 l 509 89 q 560 116 534 89 q 586 167 586 143 l 586 172 q 569 221 586 200 q 526 242 552 242 l 524 242 q 477 211 501 242 q 452 152 452 179 m 350 153 l 350 163 q 403 288 355 232 q 520 346 451 343 l 525 346 q 633 295 588 343 q 678 180 678 247 l 678 172 q 629 53 678 108 q 508 -2 579 -2 q 396 42 441 -2 q 350 153 350 86 m 192 600 q 239 629 214 600 q 263 683 263 657 q 249 727 263 713 q 204 741 235 740 l 202 741 q 154 714 180 741 q 128 665 128 687 q 147 619 128 638 q 192 600 165 600 m 192 495 q 82 544 128 495 q 37 664 37 594 q 87 790 37 736 q 204 845 137 844 l 208 845 q 319 801 274 845 q 363 691 363 756 l 363 687 q 313 553 362 612 q 192 495 263 495 m 113 16 q 322 484 197 196 q 507 931 447 771 l 612 886 q 492 599 571 781 q 329 222 414 417 q 217 -32 244 28 l 113 16 "},"P":{"x_min":70.53125,"x_max":641.59375,"ha":719,"o":"m 531 610 q 516 695 531 662 q 467 747 501 729 q 391 772 434 765 q 281 780 349 779 q 222 778 257 780 q 179 777 187 777 l 179 691 l 178 415 q 248 415 202 415 q 465 456 400 415 q 531 610 531 498 m 177 -6 l 70 -6 l 70 877 q 164 880 109 877 q 266 883 220 883 q 352 881 318 883 q 423 873 385 879 q 487 857 461 868 q 541 827 514 846 q 591 780 568 808 q 641 614 641 720 q 595 425 641 493 q 479 334 548 357 q 282 311 411 311 q 178 314 233 311 q 178 126 178 215 q 177 -6 177 37 "},"_":{"x_min":28.484375,"x_max":672.796875,"ha":719,"o":"m 31 -56 l 672 -56 l 672 -160 l 28 -160 l 31 -56 "},"+":{"x_min":41.375,"x_max":657.875,"ha":719,"o":"m 41 399 q 189 407 83 407 q 297 407 189 407 l 297 668 l 402 667 l 402 402 l 404 406 q 602 405 490 405 q 657 405 602 405 l 657 300 l 647 300 q 404 302 546 300 l 404 0 l 295 1 l 295 301 q 41 294 92 301 l 41 399 "},"‑":{"x_min":100.375,"x_max":636.84375,"ha":719,"o":"m 100 402 q 336 406 192 406 q 482 406 385 406 q 636 405 579 405 l 636 301 q 483 302 588 301 q 335 303 378 303 q 104 299 205 303 l 100 402 "},"‚":{"x_min":170.234375,"x_max":497.8125,"ha":719,"o":"m 326 219 l 497 196 q 463 57 489 124 q 403 -62 438 -10 q 333 -152 367 -114 q 262 -222 299 -191 l 170 -127 q 263 10 212 -92 q 326 219 315 113 "},"'":{"x_min":218.390625,"x_max":545.96875,"ha":719,"o":"m 374 994 l 545 972 q 512 833 537 900 q 451 713 486 765 q 381 622 415 661 q 310 553 347 584 l 218 648 q 311 786 260 683 q 374 994 363 889 "},"⁈":{"x_min":25.765625,"x_max":652.453125,"ha":719,"o":"m 129 183 l 299 183 l 299 0 l 129 0 l 129 183 m 25 811 q 119 882 61 858 q 246 906 177 906 q 420 845 361 906 q 478 673 478 784 q 468 613 478 642 q 447 563 459 583 q 414 519 436 543 q 380 484 392 495 q 345 454 368 474 q 271 323 271 392 l 271 292 l 152 292 l 152 322 q 175 422 152 379 q 244 506 198 465 q 282 538 257 517 q 319 570 308 560 q 344 598 330 581 q 364 632 359 615 q 370 670 370 649 q 337 766 370 730 q 240 801 305 801 q 154 783 191 801 q 100 728 117 764 l 25 811 m 635 933 l 624 314 l 512 312 l 501 933 l 635 933 m 482 183 l 652 183 l 652 0 l 482 0 l 482 183 "},"˛":{"x_min":210.25,"x_max":537.828125,"ha":719,"o":"m 531 27 q 447 -28 507 8 q 351 -94 387 -65 q 315 -146 315 -124 q 339 -188 315 -173 q 397 -203 362 -203 q 434 -196 415 -203 q 460 -183 453 -188 q 484 -166 467 -178 l 537 -238 q 473 -282 514 -263 q 394 -301 433 -301 q 256 -259 302 -301 q 210 -146 210 -218 q 239 -70 210 -104 q 303 -20 267 -37 q 376 15 339 -2 q 422 46 413 33 l 531 27 "},"T":{"x_min":26.453125,"x_max":639.5625,"ha":719,"o":"m 273 -6 l 273 775 q 119 775 196 775 q 26 775 42 775 l 26 880 q 268 880 62 880 q 544 881 475 881 q 639 870 578 881 l 617 767 q 541 775 575 775 l 381 775 l 381 -6 l 273 -6 "},"j":{"x_min":61.71875,"x_max":538.515625,"ha":719,"o":"m 379 952 l 538 950 l 538 797 l 379 799 l 379 952 m 425 -77 l 424 585 l 413 585 q 250 566 335 585 l 231 662 q 451 691 354 691 l 531 691 l 531 -80 q 525 -137 531 -111 q 505 -186 520 -162 q 469 -226 491 -210 q 411 -252 446 -242 q 328 -262 375 -262 q 262 -257 291 -262 q 197 -238 233 -252 q 126 -190 160 -223 q 61 -108 92 -158 l 147 -42 q 194 -106 170 -81 q 240 -141 218 -130 q 278 -153 263 -151 q 314 -156 293 -156 l 325 -156 q 372 -147 352 -156 q 403 -125 393 -139 q 419 -99 414 -111 q 425 -77 424 -87 "},"1":{"x_min":73.25,"x_max":470.6875,"ha":719,"o":"m 336 883 l 470 874 l 470 -6 l 359 -6 l 358 715 q 141 529 305 649 l 73 632 q 152 683 115 657 q 214 733 189 710 q 261 778 240 757 q 295 818 282 800 q 317 850 308 837 q 330 872 325 863 q 336 883 335 882 "},"›":{"x_min":212.28125,"x_max":541.90625,"ha":719,"o":"m 541 315 q 505 282 533 307 q 466 248 477 257 q 432 216 456 238 q 398 181 408 193 q 370 148 387 168 q 345 112 353 127 q 328 78 337 96 q 318 42 320 60 l 212 67 q 242 154 221 113 q 294 232 262 195 q 350 294 326 269 q 416 353 375 318 q 292 487 339 423 q 224 630 245 550 l 327 667 q 395 538 345 598 q 541 393 444 479 l 541 315 "},"<":{"x_min":88.84375,"x_max":592.765625,"ha":719,"o":"m 592 50 l 507 -20 q 429 54 490 5 q 252 187 387 88 q 88 307 118 286 l 88 388 q 500 701 394 639 q 558 730 540 725 l 590 623 q 497 565 552 603 q 405 500 442 527 q 299 417 369 472 q 214 350 229 362 q 282 303 227 341 q 373 239 337 265 q 458 177 409 213 q 540 108 506 140 q 592 50 575 75 "},"t":{"x_min":65.109375,"x_max":661.953125,"ha":719,"o":"m 243 296 l 243 269 q 343 103 243 113 q 416 101 361 101 q 520 117 491 101 q 576 187 557 137 l 661 149 q 659 142 661 149 q 655 131 657 134 q 650 119 653 127 q 643 104 647 110 q 633 89 639 98 q 621 72 628 80 q 605 56 614 65 q 586 40 597 48 q 563 25 575 31 q 417 -4 514 -4 q 347 -2 376 -4 q 288 6 318 0 q 236 25 257 13 q 195 58 215 37 q 162 109 176 79 q 135 267 135 163 l 135 296 q 139 428 137 333 q 143 586 141 524 l 134 586 q 78 579 106 586 l 65 678 q 134 686 86 686 l 144 686 q 144 765 144 710 q 145 845 145 821 l 252 844 q 250 689 252 781 l 333 689 l 536 691 l 548 691 l 548 591 l 333 591 q 293 590 318 591 q 252 589 268 589 q 246 412 249 509 q 243 296 244 316 "},"W":{"x_min":4.0625,"x_max":695.859375,"ha":719,"o":"m 225 0 l 136 0 q 68 433 120 63 q 4 872 16 803 l 108 893 q 159 579 144 701 q 180 366 174 457 q 196 202 186 275 q 259 456 228 307 q 295 649 290 604 q 408 657 385 649 q 427 554 411 643 q 451 423 443 465 q 475 314 459 381 q 504 203 491 247 q 515 350 511 261 q 535 561 520 439 q 588 891 550 682 l 695 870 q 625 408 676 773 q 566 0 574 44 l 474 0 q 353 415 375 290 q 225 0 322 267 "},">":{"x_min":14.921875,"x_max":531.734375,"ha":719,"o":"m 531 391 l 531 311 q 416 218 518 302 q 213 62 313 134 q 61 -29 114 -10 l 14 64 q 406 347 131 126 q 78 600 166 518 q 31 651 43 632 l 111 720 q 230 614 143 682 q 421 471 317 545 q 531 391 525 396 "},"v":{"x_min":16.28125,"x_max":617.859375,"ha":719,"o":"m 103 710 q 152 647 137 675 q 183 575 168 618 q 231 447 185 570 q 307 238 278 324 q 339 120 336 151 q 457 323 404 195 q 512 554 509 451 q 512 619 512 573 q 511 685 512 673 l 614 688 q 617 556 617 670 q 556 292 617 438 q 416 48 495 146 q 352 6 389 15 q 248 -2 314 -2 q 184 252 248 59 q 70 569 120 446 q 47 606 66 579 q 16 645 29 633 l 103 710 "},"&":{"x_min":31.875,"x_max":668.046875,"ha":719,"o":"m 444 166 q 377 255 420 198 q 301 356 335 312 q 238 439 268 400 q 139 255 139 352 q 183 135 139 181 q 287 90 226 90 q 444 166 378 90 m 375 725 q 351 788 375 767 q 288 809 328 809 q 225 778 253 809 q 196 708 196 747 q 207 660 196 685 q 228 621 217 636 q 259 582 240 605 q 349 665 320 624 q 375 725 375 699 m 668 43 l 585 -21 q 555 16 582 -17 q 508 78 529 51 q 284 -14 421 -14 q 103 57 175 -14 q 31 248 31 130 q 171 522 31 412 q 134 570 149 550 q 104 629 120 591 q 89 703 89 667 q 148 851 89 789 q 288 913 206 913 q 424 866 367 913 q 481 735 481 819 q 472 674 481 704 q 448 623 462 644 q 411 577 434 601 q 369 538 387 554 q 321 502 350 523 q 498 269 447 338 q 515 439 515 324 l 616 438 q 567 172 616 250 q 668 43 646 72 "},"I":{"x_min":103.09375,"x_max":575.8125,"ha":719,"o":"m 103 880 q 328 883 208 883 q 575 881 409 883 l 575 777 q 478 779 531 777 q 394 781 425 781 l 394 103 q 435 103 409 103 q 478 103 460 103 q 575 101 529 103 l 575 0 q 433 3 506 3 q 383 3 418 3 q 328 2 349 2 q 237 0 309 2 q 105 -2 164 -2 l 105 99 q 235 102 177 102 l 286 102 l 286 780 q 107 775 155 778 l 103 880 "},"‛":{"x_min":250.9375,"x_max":579.203125,"ha":719,"o":"m 422 994 q 485 787 433 889 q 579 648 537 684 l 486 553 q 415 622 449 584 q 346 713 381 661 q 285 833 310 765 q 250 972 259 900 l 422 994 "},"G":{"x_min":13.5625,"x_max":672.796875,"ha":719,"o":"m 583 497 q 672 501 622 497 l 672 410 q 658 226 672 302 q 615 106 644 151 q 552 38 586 61 q 468 2 517 14 q 366 -5 435 -5 q 234 16 293 -5 q 134 78 175 39 q 66 172 94 117 q 26 290 39 227 q 13 425 13 354 q 138 804 13 683 q 361 883 227 883 l 375 883 q 661 695 577 878 l 564 649 q 367 779 505 779 q 285 770 318 779 q 216 730 252 761 q 123 418 123 651 q 135 294 123 348 q 174 193 147 239 q 251 124 201 148 q 373 99 301 99 q 429 105 406 99 q 485 128 463 113 q 525 176 507 144 q 551 262 543 208 q 560 398 560 317 q 510 396 542 396 q 479 397 499 396 q 450 397 459 397 q 294 371 364 397 l 267 470 q 471 498 343 498 q 528 497 490 498 q 583 497 565 497 "},"`":{"x_min":164.125,"x_max":550.71875,"ha":719,"o":"m 326 992 q 374 886 343 940 q 437 793 404 832 q 500 725 470 753 q 550 685 530 696 l 480 573 q 414 612 446 590 q 344 668 382 634 q 274 739 306 701 q 212 828 242 777 q 164 935 183 879 l 326 992 "},"r":{"x_min":73.25,"x_max":633.453125,"ha":719,"o":"m 250 593 q 352 672 297 649 q 489 695 408 695 q 601 644 570 695 q 633 494 633 594 l 633 490 l 527 490 q 526 512 527 497 q 525 533 526 527 q 523 551 525 539 q 518 566 522 562 q 508 576 514 571 q 493 584 502 582 q 470 586 483 586 q 415 579 441 586 q 359 555 389 573 q 301 501 329 538 q 248 411 272 465 l 248 0 l 142 0 l 142 518 q 141 530 142 524 q 138 541 141 535 q 133 551 135 547 q 127 561 132 556 q 119 571 122 567 q 109 581 117 574 q 99 591 102 588 q 86 602 95 594 q 73 613 77 610 l 143 709 q 163 693 148 705 q 185 676 179 681 q 203 660 191 672 q 221 641 215 649 q 236 619 228 632 q 250 593 244 607 "},"‒":{"x_min":82.875,"x_max":643.375,"ha":719,"o":"m 82 402 q 329 406 179 406 q 481 406 380 406 q 643 405 583 405 l 643 301 q 482 302 592 301 q 328 303 373 303 q 87 299 192 303 l 82 402 "},"x":{"x_min":44.078125,"x_max":644.3125,"ha":719,"o":"m 583 585 q 503 459 554 537 q 415 330 453 381 q 474 247 436 303 q 539 154 512 192 q 572 111 566 115 q 609 105 580 105 q 644 109 622 105 l 644 6 q 602 2 617 2 q 520 29 559 2 q 479 68 503 40 q 436 123 455 96 q 388 193 418 149 q 344 257 358 238 q 126 -12 272 163 l 44 56 q 81 104 47 61 q 173 218 115 147 q 278 346 230 288 q 54 651 168 500 l 142 719 q 271 537 192 650 q 351 423 350 424 q 485 630 402 485 q 508 691 500 657 l 615 691 q 583 585 607 623 "},"h":{"x_min":68.5,"x_max":665.34375,"ha":719,"o":"m 501 390 q 495 486 501 451 q 471 546 489 522 q 423 579 453 571 q 340 588 392 588 q 245 558 291 588 q 182 495 199 529 l 182 134 q 175 0 182 62 l 68 5 q 75 138 75 72 l 75 950 l 183 950 l 183 637 q 261 677 223 663 q 345 691 298 691 q 469 678 419 691 q 555 620 518 664 q 598 541 588 581 q 607 435 607 501 l 607 390 q 607 257 607 330 q 607 151 607 184 q 620 106 607 124 q 665 67 633 88 l 605 -11 q 565 13 581 2 q 533 43 550 25 q 509 85 517 61 q 501 141 501 109 l 501 390 "},".":{"x_min":269.25,"x_max":439.484375,"ha":719,"o":"m 269 182 l 439 182 l 439 0 l 269 0 l 269 182 "},"█":{"x_min":-13.5625,"x_max":732.484375,"ha":719,"o":"m -13 1234 l 732 1234 l 732 -342 l -13 -342 l -13 1234 "},";":{"x_min":230.34375,"x_max":441.953125,"ha":719,"o":"m 264 719 l 434 719 l 434 537 l 264 537 l 264 719 m 266 185 l 437 185 l 441 7 l 441 5 q 271 -266 441 -189 l 230 -172 q 302 -104 279 -145 q 326 3 326 -64 l 266 3 l 266 185 "},"f":{"x_min":75.96875,"x_max":685.6875,"ha":719,"o":"m 385 858 q 336 850 356 858 q 304 830 316 842 q 287 799 293 819 q 280 762 282 779 q 279 718 279 745 l 279 692 q 369 692 301 692 q 463 691 438 691 q 572 678 533 689 l 552 579 q 486 588 526 588 l 279 588 q 281 0 281 274 l 174 0 q 172 588 174 438 l 75 588 l 75 691 l 173 691 q 173 706 173 697 q 172 721 172 714 q 176 784 172 756 q 191 847 179 812 q 225 905 204 882 q 286 945 246 929 q 379 961 326 961 q 574 935 503 961 q 685 830 645 910 l 600 778 q 533 843 575 828 q 385 858 491 858 "},"“":{"x_min":103.09375,"x_max":617.1875,"ha":719,"o":"m 253 685 q 242 617 248 661 l 103 644 q 115 724 107 688 q 187 929 148 853 q 286 1061 226 1005 l 373 978 q 312 871 345 952 q 253 685 279 790 m 497 683 q 486 616 492 659 l 347 642 q 360 722 351 687 q 431 928 392 852 q 531 1060 470 1004 l 617 976 q 556 869 590 950 q 497 683 523 788 "},"A":{"x_min":28.484375,"x_max":687.71875,"ha":719,"o":"m 486 335 l 355 733 l 229 322 q 364 333 259 328 l 486 335 m 294 882 l 410 882 l 666 116 q 687 0 685 52 l 576 0 q 571 40 576 11 q 562 82 567 69 l 515 225 q 482 224 508 225 q 444 223 455 223 q 407 222 433 223 q 366 221 381 221 q 328 219 352 220 q 289 216 305 218 q 255 213 273 215 q 221 208 236 211 q 194 203 206 206 l 154 82 q 138 0 138 34 l 28 0 q 36 49 29 14 q 50 107 43 85 l 294 882 "},"6":{"x_min":63.75,"x_max":608.359375,"ha":719,"o":"m 483 796 q 215 568 297 763 q 184 443 196 521 q 213 467 204 461 q 243 485 222 474 q 291 501 265 497 q 354 505 318 505 q 538 436 468 505 q 608 249 608 366 q 532 61 608 125 q 330 -2 455 -2 q 132 89 202 -2 q 63 326 63 181 q 115 610 63 477 q 240 794 159 720 q 457 896 320 869 l 483 796 m 174 273 q 223 145 183 189 q 330 101 263 101 q 452 141 404 101 q 500 249 500 181 q 459 359 500 318 q 348 400 419 400 q 233 360 284 400 q 174 273 183 320 "},"O":{"x_min":16.28125,"x_max":647.03125,"ha":719,"o":"m 341 899 q 385 895 362 899 q 438 879 407 891 q 496 846 469 866 q 551 790 523 826 q 599 706 579 754 q 633 588 619 659 q 647 430 646 516 l 647 423 q 629 270 647 344 q 584 145 611 196 q 481 31 545 71 q 333 -8 417 -8 q 208 15 267 -8 q 109 88 149 39 q 16 387 16 202 q 43 636 16 545 q 115 787 70 727 q 208 867 151 836 q 341 899 266 897 m 180 166 q 333 94 233 94 q 492 196 437 94 q 525 297 512 227 q 539 425 539 367 l 539 438 q 492 689 539 597 q 345 795 438 795 q 265 779 297 795 q 203 725 232 763 q 123 390 123 621 q 138 266 123 332 q 180 166 153 200 "},"n":{"x_min":54.265625,"x_max":680.25,"ha":719,"o":"m 183 628 q 299 678 248 663 q 405 693 350 693 q 472 682 437 693 q 537 654 506 672 q 588 605 568 636 q 608 539 608 575 l 608 143 q 612 116 608 128 q 628 95 617 105 q 647 81 640 86 q 672 67 654 76 q 680 63 677 64 l 623 -12 q 578 11 595 0 q 540 40 560 22 q 511 82 520 58 q 501 138 501 107 l 501 518 q 465 572 501 553 q 390 591 430 591 q 313 573 360 591 q 183 515 266 555 l 183 0 l 75 0 l 75 478 q 73 572 75 537 q 67 623 71 607 q 54 680 64 640 l 162 705 q 183 628 175 674 "},"‘":{"x_min":203.46875,"x_max":531.046875,"ha":719,"o":"m 375 573 l 203 596 q 237 735 212 668 q 298 855 262 803 q 367 945 333 907 q 438 1015 401 984 l 531 920 q 437 781 489 885 q 375 573 385 678 "},"3":{"x_min":52.90625,"x_max":596.84375,"ha":719,"o":"m 52 227 l 160 227 q 202 128 160 166 q 316 90 243 90 q 442 134 396 90 q 488 253 488 178 q 467 351 488 311 q 400 417 447 390 q 339 441 371 433 q 286 450 306 449 q 230 451 266 451 l 230 558 l 241 558 q 349 576 297 558 q 415 619 394 592 q 436 697 436 647 q 399 757 436 735 q 309 779 363 779 q 172 685 219 779 l 75 738 q 84 757 78 745 q 110 793 91 770 q 152 835 128 816 q 217 869 177 854 q 303 883 257 883 l 310 883 q 425 865 374 883 q 509 805 476 847 q 543 700 543 762 q 517 584 543 634 q 446 513 492 533 q 596 255 596 440 q 580 157 596 208 q 531 68 563 106 q 316 -14 460 -14 q 124 53 196 -14 q 52 227 52 121 "},"9":{"x_min":44.078125,"x_max":614.46875,"ha":719,"o":"m 341 781 q 221 747 269 781 q 172 645 172 713 q 221 552 172 583 q 337 520 269 520 q 439 554 396 520 q 494 629 482 588 q 443 734 487 687 q 341 781 399 781 m 65 647 q 137 819 65 755 q 324 883 210 883 q 422 869 379 883 q 495 832 465 855 q 546 774 524 809 q 581 703 569 739 q 602 619 594 667 q 612 530 609 571 q 614 436 614 488 q 607 306 614 365 q 581 188 600 246 q 532 89 562 129 q 450 23 501 48 q 330 -1 398 -1 q 144 51 210 -1 q 44 212 78 105 l 147 243 q 172 179 160 202 q 203 137 183 156 q 253 111 223 118 q 330 104 284 104 q 395 115 366 104 q 443 149 423 127 q 475 198 462 170 q 495 261 489 225 q 505 332 502 297 q 508 408 508 367 q 506 481 508 410 q 432 433 473 448 q 327 417 391 417 q 139 477 212 417 q 65 647 65 537 "},"l":{"x_min":56.296875,"x_max":697.890625,"ha":719,"o":"m 281 968 l 360 968 q 362 143 360 968 q 384 95 364 105 q 457 85 404 85 q 564 98 510 85 q 651 134 619 110 l 697 57 q 591 6 656 23 q 458 -10 526 -10 q 319 14 366 -10 q 256 141 256 49 l 254 863 q 232 863 249 863 q 204 864 215 864 q 75 852 125 864 l 56 949 q 281 968 138 968 "},"4":{"x_min":52.90625,"x_max":602.9375,"ha":719,"o":"m 410 386 l 410 671 q 309 524 375 609 q 194 386 244 440 l 410 386 m 52 368 q 95 421 54 370 q 183 533 137 472 q 280 663 229 594 q 366 793 330 733 q 405 885 401 854 l 516 885 l 516 386 l 602 386 l 602 282 l 516 282 l 516 -1 l 410 -1 l 410 280 l 93 280 l 52 368 "},"p":{"x_min":73.25,"x_max":623.96875,"ha":719,"o":"m 517 357 q 482 524 517 467 q 365 581 448 581 q 288 570 319 581 q 238 536 258 558 q 191 473 218 515 l 191 177 q 253 123 234 136 q 327 100 288 100 q 517 357 517 100 m 86 501 l 86 517 q 73 676 86 592 l 184 690 q 191 625 191 645 q 364 687 261 687 q 560 601 497 687 q 623 370 623 515 q 318 -4 623 -4 q 294 -3 305 -4 q 274 -1 282 -2 q 256 3 266 0 q 242 8 246 6 q 228 15 237 10 q 216 22 219 20 q 203 30 212 23 q 191 37 193 36 l 191 -102 q 202 -269 191 -164 l 94 -275 q 85 -99 85 -198 l 86 501 "},"‡":{"x_min":37.296875,"x_max":615.140625,"ha":719,"o":"m 381 130 l 381 50 q 377 -134 381 -52 l 268 -133 q 271 -25 271 -81 q 271 29 271 -12 q 271 103 271 70 l 271 130 q 221 131 255 130 q 170 131 188 131 q 40 128 99 131 l 40 236 q 270 242 140 242 q 267 683 269 419 q 37 693 195 683 q 39 800 37 766 q 265 793 151 793 q 265 948 265 852 l 265 1011 l 373 1011 l 373 913 q 374 794 373 838 q 613 799 554 799 l 613 691 q 473 688 558 691 q 375 685 387 685 q 381 241 380 336 q 483 238 401 240 q 615 236 566 236 l 613 127 q 487 128 567 127 q 381 130 407 130 "},"‽":{"x_min":100.375,"x_max":638.890625,"ha":719,"o":"m 271 0 l 271 183 l 440 183 l 440 0 l 271 0 m 290 790 q 206 670 207 760 q 241 584 206 627 l 150 523 q 100 667 100 596 q 152 821 100 763 q 290 898 204 880 l 290 933 l 424 933 l 423 902 q 578 825 518 886 q 638 673 638 764 q 633 630 638 651 q 617 590 628 609 q 596 556 606 571 q 568 524 585 541 q 540 499 550 507 q 511 474 531 490 q 486 454 492 458 q 413 327 416 394 l 413 323 l 413 292 l 294 292 l 294 322 l 290 790 m 417 531 q 444 552 422 535 q 473 575 467 569 q 494 594 479 580 q 515 618 510 609 q 525 641 520 627 q 530 670 530 655 q 501 749 530 716 q 421 794 473 781 q 419 663 421 751 q 417 531 417 575 "}}}
